<svg xmlns="http://www.w3.org/2000/svg" width="42" height="42" viewBox="0 0 42 42">
    <g fill="none" fill-rule="evenodd">
        <circle cx="21" cy="21" r="20" fill="#000"/>
        <path fill="#00BCF2" d="M21 0c11.598 0 21 9.402 21 21s-9.402 21-21 21S0 32.598 0 21 9.402 0 21 0zm0 2C10.507 2 2 10.507 2 21s8.507 19 19 19 19-8.507 19-19S31.493 2 21 2z"/>
        <path fill="#00BCF2" d="M18.636 21.91c.804 0 1.455.65 1.455 1.454v6.181c0 .804-.651 1.455-1.455 1.455h-6.181A1.455 1.455 0 0 1 11 29.545v-6.181c0-.804.651-1.455 1.455-1.455h6.181zm6.546 6.908a1.09 1.09 0 0 1 0 2.182H23a1.09 1.09 0 1 1 0-2.182h2.182zm4.727 0a1.09 1.09 0 0 1 0 2.182h-1.454a1.09 1.09 0 1 1 0-2.182h1.454zm-12.727-4h-3.273v3.273h3.273v-3.273zm9.09-2.909c.603 0 1.092.489 1.092 1.091v2.545h2.545a1.09 1.09 0 0 1 0 2.182h-3.636a1.09 1.09 0 0 1-1.091-1.09V24.09H23a1.09 1.09 0 1 1 0-2.182h3.273zM23 25.182c.602 0 1.09.488 1.09 1.09v.364a1.09 1.09 0 1 1-2.18 0v-.363c0-.603.488-1.091 1.09-1.091zm6.91-3.273a1.09 1.09 0 1 1 0 2.182h-.365a1.09 1.09 0 0 1 0-2.182h.364zM18.635 11c.804 0 1.455.651 1.455 1.455v6.181c0 .804-.651 1.455-1.455 1.455h-6.181A1.455 1.455 0 0 1 11 18.636v-6.181c0-.804.651-1.455 1.455-1.455h6.181zm10.91 0c.803 0 1.454.651 1.454 1.455v6.181c0 .804-.651 1.455-1.455 1.455h-6.181a1.455 1.455 0 0 1-1.455-1.455v-6.181c0-.804.651-1.455 1.455-1.455h6.181zm-12.364 2.91h-3.273v3.272h3.273v-3.273zm10.909 0h-3.273v3.272h3.273v-3.273z"/>
    </g>
</svg>
