<svg xmlns="http://www.w3.org/2000/svg" width="42" height="42" viewBox="0 0 42 42">
    <g fill="none" fill-rule="evenodd">
        <circle cx="21" cy="21" r="20" fill="#000"/>
        <path fill="#E9E9F2" d="M21 0c11.598 0 21 9.402 21 21s-9.402 21-21 21S0 32.598 0 21 9.402 0 21 0zm0 2C10.507 2 2 10.507 2 21s8.507 19 19 19 19-8.507 19-19S31.493 2 21 2z"/>
        <path fill="#E9E9F2" d="M15.5 9a1.5 1.5 0 0 1 1.445 1.095L32.5 16.5 17 22.881V31.5a1.5 1.5 0 0 1-3 0v-21A1.5 1.5 0 0 1 15.5 9z"/>
    </g>
</svg>
