<svg xmlns="http://www.w3.org/2000/svg" xmlns:xlink="http://www.w3.org/1999/xlink" width="42" height="42" viewBox="0 0 42 42">
    <defs>
        <path id="a" d="M0 0h21.996v16H0z"/>
    </defs>
    <g fill="none" fill-rule="evenodd">
        <path fill="#E9E9F2" d="M21 0c11.598 0 21 9.402 21 21s-9.402 21-21 21S0 32.598 0 21 9.402 0 21 0zm0 2C10.507 2 2 10.507 2 21s8.507 19 19 19 19-8.507 19-19S31.493 2 21 2z"/>
        <g transform="translate(10 11)">
            <mask id="b" fill="#fff">
                <use xlink:href="#a"/>
            </mask>
            <path fill="#E9E9F2" d="M21.964 14.57c-.967-6.96-3.978-9.665-7.829-9.665H9.593V1.031A1.02 1.02 0 0 0 8.584.001a.998.998 0 0 0-.675.263L.334 7.234a1.048 1.048 0 0 0 0 1.532l7.575 6.97a.995.995 0 0 0 1.426-.078c.166-.19.258-.435.258-.69v-3.874h4.542c2.447 0 4.338 1.292 5.672 4.133.258.548.718.907 1.451.723.882-.222.746-1.094.706-1.38" mask="url(#b)"/>
        </g>
    </g>
</svg>
