<svg xmlns="http://www.w3.org/2000/svg" width="42" height="42" viewBox="0 0 42 42">
    <g fill="none" fill-rule="evenodd">
        <circle cx="21" cy="21" r="19" fill="#000"/>
        <g fill="#E9E9F2">
            <path d="M21 0c11.598 0 21 9.402 21 21s-9.402 21-21 21S0 32.598 0 21 9.402 0 21 0zm0 2C10.507 2 2 10.507 2 21s8.507 19 19 19 19-8.507 19-19S31.493 2 21 2z"/>
            <g fill-rule="nonzero">
                <path d="M21.246 21.292l9.718-5.492-.492-.87-9.718 5.492z"/>
                <path d="M10.73 15.537l10.016 5.894.508-.862-10.016-5.894z"/>
                <path d="M20.5 20.857v11.015a.5.5 0 1 0 1 0V20.857a.5.5 0 1 0-1 0z"/>
                <path d="M19.986 8.887l-8.87 5.107a2 2 0 0 0-1.002 1.735l.012 10.235a2 2 0 0 0 1 1.73l8.89 5.132a2 2 0 0 0 1.998.001l8.87-5.106a2 2 0 0 0 1.002-1.736l-.012-10.234a2 2 0 0 0-1-1.73l-8.89-5.133a2 2 0 0 0-1.998 0zm-7.872 6.84l8.87-5.107 8.89 5.133.012 10.234-8.87 5.107-8.89-5.133-.012-10.234z"/>
            </g>
        </g>
    </g>
</svg>
