<svg xmlns="http://www.w3.org/2000/svg" width="42" height="42" viewBox="0 0 42 42">
    <defs>
        <filter id="a" width="155.3%" height="195.5%" x="-27.6%" y="-47.7%" filterUnits="objectBoundingBox">
            <feGaussianBlur in="SourceGraphic" stdDeviation="2"/>
        </filter>
    </defs>
    <g fill="none" fill-rule="evenodd">
        <g fill="#E9E9F2">
            <path d="M21 0c11.598 0 21 9.402 21 21s-9.402 21-21 21S0 32.598 0 21 9.402 0 21 0zm0 2C10.507 2 2 10.507 2 21s8.507 19 19 19 19-8.507 19-19S31.493 2 21 2z"/>
            <g fill-rule="nonzero">
                <path d="M21.246 21.292l9.718-5.492-.492-.87-9.718 5.492z"/>
                <path d="M10.73 15.537l10.016 5.894.508-.862-10.016-5.894z"/>
                <path d="M20.5 20.857v11.015a.5.5 0 1 0 1 0V20.857a.5.5 0 1 0-1 0z"/>
                <path d="M19.986 8.887l-8.87 5.107a2 2 0 0 0-1.002 1.735l.012 10.235a2 2 0 0 0 1 1.73l8.89 5.132a2 2 0 0 0 1.998.001l8.87-5.106a2 2 0 0 0 1.002-1.736l-.012-10.234a2 2 0 0 0-1-1.73l-8.89-5.133a2 2 0 0 0-1.998 0zm-7.872 6.84l8.87-5.107 8.89 5.133.012 10.234-8.87 5.107-8.89-5.133-.012-10.234z"/>
            </g>
        </g>
        <path fill="#000" d="M6.143 24.429L17 18.143l10.857 6.286L17 30.714z" filter="url(#a)" opacity=".64" transform="translate(4 5)"/>
        <path fill="#000" d="M10.143 27.714L21 21.43l10.857 6.285L21 34z"/>
        <path fill="#D41034" d="M10.143 15.143v12.571L21 34V21.429z" opacity=".534"/>
        <path stroke="#FFC7D1" stroke-linecap="round" stroke-linejoin="round" d="M21 21.429l-10.857 6.285"/>
        <path fill="#D41034" d="M21 21.429V34l10.857-6.286V15.143z" opacity=".761"/>
        <path fill="#D41034" d="M10.143 15.143L21 8.857l10.857 6.286L21 21.429z" opacity=".392"/>
        <path stroke="#FFC7D1" stroke-linecap="round" stroke-linejoin="round" d="M21 21.429V8.857M21 21.429l10.857 6.285"/>
        <path stroke="#FFF" stroke-width="2" d="M21 21.429l10.857-6.286"/>
        <path stroke="#FFF" stroke-linejoin="round" stroke-width="2" d="M10.143 15.143L21 21.429"/>
        <path stroke="#FFF" stroke-linecap="round" stroke-linejoin="round" stroke-width="2" d="M21 21.429v12"/>
        <path stroke="#FFF" stroke-linejoin="round" stroke-width="2" d="M20.985 8.883l-10.872 6.26.015 12.545 10.887 6.286 10.872-6.26-.015-12.545z"/>
    </g>
</svg>
