<svg xmlns="http://www.w3.org/2000/svg" width="32" height="32" viewBox="0 0 32 32">
    <path fill="#E9E9F2" fill-rule="evenodd" d="M13.037 19.302l1.37 1.476-7.39 7.388a.771.771 0 0 1-1.091 0l-1.591-1.591a.773.773 0 0 1 0-1.092l6.147-6.149c.267.063.538.102.817.102.101 0 .204-.003.306-.012l1.432-.122zM5.44 4.884c.214 0 .42.085.575.238L26.16 25.267a.819.819 0 0 1-.001 1.15l-1.653 1.653a.818.818 0 0 1-.577.238h-.014a.812.812 0 0 1-.581-.26l-9.652-10.412-2.214.188a1.992 1.992 0 0 1-1.581-.578l-3.812-3.811a7.082 7.082 0 0 1-1.368-8.092.815.815 0 0 1 .732-.46zm16.44-.167a.74.74 0 0 1 1.046 1.045l-3.983 3.984a.964.964 0 0 0 1.363 1.363l3.963-3.964a.77.77 0 0 1 1.087 0 .77.77 0 0 1 0 1.087l-3.965 3.963a.966.966 0 0 0 0 1.363.967.967 0 0 0 1.365 0l3.984-3.984a.739.739 0 1 1 1.044 1.046l-4.482 4.48c-1.077 1.078-2.59 1.419-3.968 1.072l-3.004-3.004c-.349-1.378-.009-2.891 1.07-3.97z"/>
</svg>
