<svg xmlns="http://www.w3.org/2000/svg" width="42" height="42" viewBox="0 0 42 42">
    <g fill="none" fill-rule="evenodd" transform="translate(2 2)">
        <rect width="40" height="40" x="-1" y="-1" fill="#000" stroke="#E9E9F2" stroke-width="2" rx="20"/>
        <path fill="#E9E9F2" d="M27 13v15.5a2.5 2.5 0 0 1-2.336 2.495L24.5 31h-11a2.5 2.5 0 0 1-2.495-2.336L11 28.5V13h16zm-11.71 5.29a.988.988 0 0 0 0 1.4L17.6 22l-2.31 2.311a.988.988 0 1 0 1.4 1.4L19 23.398l2.31 2.311a.99.99 0 1 0 1.4-1.399l-2.31-2.31 2.31-2.312a.99.99 0 0 0-1.4-1.399L19 20.601l-2.31-2.31a.988.988 0 0 0-1.4 0zM21.5 7a1.5 1.5 0 0 1 1.415 1H26.5a1.5 1.5 0 0 1 0 3h-15a1.5 1.5 0 0 1 0-3h3.585A1.5 1.5 0 0 1 16.5 7h5z"/>
    </g>
</svg>
