<svg xmlns="http://www.w3.org/2000/svg" xmlns:xlink="http://www.w3.org/1999/xlink" width="32" height="32" viewBox="0 0 32 32">
    <defs>
        <path id="a" d="M0 0h24v24H0z"/>
    </defs>
    <g fill="none" fill-rule="evenodd" transform="translate(4 4)">
        <mask id="b" fill="#fff">
            <use xlink:href="#a"/>
        </mask>
        <path fill="#000" d="M12.01 6.99a2 2 0 1 1 .001-4.001 2 2 0 0 1-.001 4.001zm1.5 12.5a1.5 1.5 0 1 1-3 0v-7.5h-.5a1.5 1.5 0 1 1 0-3h2a1.5 1.5 0 0 1 1.5 1.5v9zM12 0C5.373 0 0 5.372 0 12c0 6.627 5.373 12 12 12 6.628 0 12-5.373 12-12 0-6.628-5.372-12-12-12z" mask="url(#b)"/>
    </g>
</svg>
