<svg xmlns="http://www.w3.org/2000/svg" xmlns:xlink="http://www.w3.org/1999/xlink" width="32" height="32" viewBox="0 0 32 32">
    <defs>
        <path id="a" d="M0 0h21.942v24H0z"/>
    </defs>
    <g fill="none" fill-rule="evenodd" transform="translate(5 4)">
        <mask id="b" fill="#fff">
            <use xlink:href="#a"/>
        </mask>
        <path fill="#000" d="M15.473 15.157l-4.29 3.845a.303.303 0 0 1-.215.092.305.305 0 0 1-.217-.094l-4.28-3.853a3.111 3.111 0 0 1-.875-2.175 3.101 3.101 0 0 1 .87-2.177 2.909 2.909 0 0 1 2.102-.9 2.92 2.92 0 0 1 2.108.905l.298.308.294-.304a2.91 2.91 0 0 1 4.21-.002c.562.582.87 1.355.868 2.177 0 .823-.31 1.596-.873 2.178zM6.95 4.68c0-1.109.899-2.007 2.007-2.007h4.026c1.108 0 2.007.898 2.007 2.007V5H6.95v-.32zM17.998 5v-.114A4.885 4.885 0 0 0 13.113 0H8.829a4.885 4.885 0 0 0-4.885 4.886V5H0v15.5A3.5 3.5 0 0 0 3.5 24h14.942a3.5 3.5 0 0 0 3.5-3.5V5h-3.944z" mask="url(#b)"/>
    </g>
</svg>
