<svg xmlns="http://www.w3.org/2000/svg" width="32" height="32" viewBox="0 0 32 32">
    <g fill="#E9E9F2" fill-rule="evenodd">
        <path d="M24.984 22.267l-.6-1.592a1.712 1.712 0 0 0-1.61-1.108h-.263V5.855H9.49v7.588h1.704l1.946-2.433a2.207 2.207 0 0 1 1.651-.755h4.16a1.712 1.712 0 0 1 1.536.937l1.237 2.342c.064.107.096.23.094.355a.804.804 0 0 1-.787.787.765.765 0 0 1-.712-.412l-1.106-2.133h-1.799l1.387 3.447.412 4.406h3.56c.562 0 1.011.356 1.236.843l.393 1.012h-6.144c-.45 0-.843-.337-.862-.787l-.412-3.86-3.298 6.839c-.205.41-.63.665-1.088.653h-1.591l4.046-8.375-1.255-3.148-1.198 1.46a1.714 1.714 0 0 1-1.35.656H9.49v9.894l2.81 2.791H4V4h24v24h-2.698l-2.792-2.792v-2.94h2.474"/>
        <path d="M13.508 7h.166l.083.017.066.016.067.017.065.016.066.033.067.033.066.033.066.033.067.033.066.033.05.05.05.05.05.049.05.05.05.049.049.05.05.049.052.065.033.066.029.066.033.066.035.066.033.066.017.066.016.066.017.066.016.066.017.082v.165C15 9.34 14.304 10 13.492 10A1.481 1.481 0 0 1 12 8.53v-.014C12 7.696 12.696 7 13.508 7M15.01 25.685L17 28h-2.408L12 25h1.557c.541.007 1.06.251 1.454.685"/>
    </g>
</svg>
