{
  "accessors": [
    {
      "bufferView": 2,
      "componentType": 5126,
      "count": 65534,
      "max": [
        0.28395301103591919,
        -0.67590099573135376,
        0.32652199268341064
      ],
      "min": [
        -0.27593401074409485,
        -2.6549639701843262,
        -0.24697500467300415
      ],
      "type": "VEC3"
    },
    {
      "bufferView": 2,
      "byteOffset": 786408,
      "componentType": 5126,
      "count": 65534,
      "max": [
        0.99999481439590454,
        1,
        0.99997961521148682
      ],
      "min": [
        -0.99996346235275269,
        -0.99999934434890747,
        -0.9999956488609314
      ],
      "type": "VEC3"
    },
    {
      "bufferView": 3,
      "componentType": 5126,
      "count": 65534,
      "max": [
        0.99999642372131348,
        0.99998670816421509,
        0.9999728798866272,
        1
      ],
      "min": [
        -0.99999195337295532,
        -0.99997276067733765,
        -0.99999332427978516,
        -1
      ],
      "type": "VEC4"
    },
    {
      "bufferView": 3,
      "byteOffset": 1048544,
      "componentType": 5126,
      "count": 65534,
      "max": [
        0.92549020051956177,
        0.90588235855102539,
        0.89803922176361084,
        1
      ],
      "min": [
        0.035294119268655777,
        0.019607843831181526,
        0,
        1
      ],
      "type": "VEC4"
    },
    {
      "bufferView": 1,
      "componentType": 5126,
      "count": 65534,
      "max": [
        0.95845097303390503,
        0.99000000953674316
      ],
      "min": [
        0.0099999997764825821,
        0.011971999891102314
      ],
      "type": "VEC2"
    },
    {
      "bufferView": 0,
      "componentType": 5125,
      "count": 311211,
      "max": [
        65533
      ],
      "min": [
        0
      ],
      "type": "SCALAR"
    },
    {
      "bufferView": 2,
      "byteOffset": 1572816,
      "componentType": 5126,
      "count": 65532,
      "max": [
        0.28417301177978516,
        -0.67590099573135376,
        0.32652199268341064
      ],
      "min": [
        -0.27593401074409485,
        -2.6550629138946533,
        -0.24658699333667755
      ],
      "type": "VEC3"
    },
    {
      "bufferView": 2,
      "byteOffset": 2359200,
      "componentType": 5126,
      "count": 65532,
      "max": [
        0.99999314546585083,
        0.9999995231628418,
        0.99999058246612549
      ],
      "min": [
        -0.9999726414680481,
        -0.99999934434890747,
        -0.99999678134918213
      ],
      "type": "VEC3"
    },
    {
      "bufferView": 3,
      "byteOffset": 2097088,
      "componentType": 5126,
      "count": 65532,
      "max": [
        0.99999642372131348,
        0.99999916553497314,
        0.9999728798866272,
        1
      ],
      "min": [
        -0.99999195337295532,
        -0.99997276067733765,
        -0.99999469518661499,
        -1
      ],
      "type": "VEC4"
    },
    {
      "bufferView": 3,
      "byteOffset": 3145600,
      "componentType": 5126,
      "count": 65532,
      "max": [
        0.92549020051956177,
        0.90980392694473267,
        0.90196079015731812,
        1
      ],
      "min": [
        0.015686275437474251,
        0.011764706112444401,
        0,
        1
      ],
      "type": "VEC4"
    },
    {
      "bufferView": 1,
      "byteOffset": 524272,
      "componentType": 5126,
      "count": 65532,
      "max": [
        0.99000000953674316,
        0.99000000953674316
      ],
      "min": [
        0.0099999997764825821,
        0.011971999891102314
      ],
      "type": "VEC2"
    },
    {
      "bufferView": 0,
      "byteOffset": 1244844,
      "componentType": 5125,
      "count": 279375,
      "max": [
        65531
      ],
      "min": [
        0
      ],
      "type": "SCALAR"
    },
    {
      "bufferView": 2,
      "byteOffset": 3145584,
      "componentType": 5126,
      "count": 7078,
      "max": [
        0.28167599439620972,
        -0.67594200372695923,
        0.31776198744773865
      ],
      "min": [
        -0.27523899078369141,
        -2.6493990421295166,
        -0.24684399366378784
      ],
      "type": "VEC3"
    },
    {
      "bufferView": 2,
      "byteOffset": 3230520,
      "componentType": 5126,
      "count": 7078,
      "max": [
        0.99997633695602417,
        1,
        0.99997389316558838
      ],
      "min": [
        -0.99994724988937378,
        -0.99996030330657959,
        -0.99973607063293457
      ],
      "type": "VEC3"
    },
    {
      "bufferView": 3,
      "byteOffset": 4194112,
      "componentType": 5126,
      "count": 7078,
      "max": [
        0.99989563226699829,
        0.99986034631729126,
        0.99954384565353394,
        1
      ],
      "min": [
        -0.99997913837432861,
        -0.99987339973449707,
        -0.99983322620391846,
        -1
      ],
      "type": "VEC4"
    },
    {
      "bufferView": 3,
      "byteOffset": 4307360,
      "componentType": 5126,
      "count": 7078,
      "max": [
        0.88235294818878174,
        0.85490196943283081,
        0.84313726425170898,
        1
      ],
      "min": [
        0.039215687662363052,
        0.019607843831181526,
        0.0078431377187371254,
        1
      ],
      "type": "VEC4"
    },
    {
      "bufferView": 1,
      "byteOffset": 1048528,
      "componentType": 5126,
      "count": 7078,
      "max": [
        0.96609997749328613,
        0.99000000953674316
      ],
      "min": [
        0.010129000060260296,
        0.018567999824881554
      ],
      "type": "VEC2"
    },
    {
      "bufferView": 0,
      "byteOffset": 2362344,
      "componentType": 5125,
      "count": 9420,
      "max": [
        7077
      ],
      "min": [
        0
      ],
      "type": "SCALAR"
    }
  ],
  "asset": {
    "extras": {
      "author": "Rigsters (https://sketchfab.com/rigsters)",
      "license": "CC-BY-4.0 (http://creativecommons.org/licenses/by/4.0/)",
      "source": "https://sketchfab.com/models/9cd1d80b84d04191b577217d5c2214c5",
      "title": "Wounded Amazon"
    },
    "generator": "Sketchfab-3.22.13",
    "version": "2.0"
  },
  "bufferViews": [
    {
      "buffer": 0,
      "byteLength": 2400024,
      "byteOffset": 0,
      "name": "floatBufferViews",
      "target": 34963
    },
    {
      "buffer": 0,
      "byteLength": 1105152,
      "byteOffset": 2400024,
      "byteStride": 8,
      "name": "floatBufferViews",
      "target": 34962
    },
    {
      "buffer": 0,
      "byteLength": 3315456,
      "byteOffset": 3505176,
      "byteStride": 12,
      "name": "floatBufferViews",
      "target": 34962
    },
    {
      "buffer": 0,
      "byteLength": 4420608,
      "byteOffset": 6820632,
      "byteStride": 16,
      "name": "floatBufferViews",
      "target": 34962
    }
  ],
  "buffers": [
    {
      "byteLength": 11241240,
      "uri": "scene.bin"
    }
  ],
  "images": [
    {
      "uri": "textures/glypt_amazon-200k-textured_Material_u1_v1_baseColor.png"
    },
    {
      "uri": "textures/glypt_amazon-200k-textured_Material_u1_v1_normal.jpg"
    }
  ],
  "materials": [
    {
      "doubleSided": true,
      "name": "glypt_amazon-200k-textured_Material_u1_v1",
      "normalTexture": {
        "index": 1,
        "scale": 1,
        "texCoord": 0
      },
      "pbrMetallicRoughness": {
        "baseColorFactor": [
          1,
          1,
          1,
          1
        ],
        "baseColorTexture": {
          "index": 0,
          "texCoord": 0
        },
        "metallicFactor": 0,
        "roughnessFactor": 1
      }
    }
  ],
  "meshes": [
    {
      "primitives": [
        {
          "attributes": {
            "COLOR_0": 3,
            "NORMAL": 1,
            "POSITION": 0,
            "TANGENT": 2,
            "TEXCOORD_0": 4
          },
          "indices": 5,
          "material": 0,
          "mode": 4
        }
      ]
    },
    {
      "primitives": [
        {
          "attributes": {
            "COLOR_0": 9,
            "NORMAL": 7,
            "POSITION": 6,
            "TANGENT": 8,
            "TEXCOORD_0": 10
          },
          "indices": 11,
          "material": 0,
          "mode": 4
        }
      ]
    },
    {
      "primitives": [
        {
          "attributes": {
            "COLOR_0": 15,
            "NORMAL": 13,
            "POSITION": 12,
            "TANGENT": 14,
            "TEXCOORD_0": 16
          },
          "indices": 17,
          "material": 0,
          "mode": 4
        }
      ]
    }
  ],
  "nodes": [
    {
      "children": [
        1
      ],
      "name": "RootNode (gltf orientation matrix)",
      "rotation": [
        -0.70710678118654746,
        -0,
        -0,
        0.70710678118654757
      ]
    },
    {
      "children": [
        2
      ],
      "matrix": [
        1,
        0,
        0,
        0,
        0,
        0,
        -1,
        0,
        0,
        1,
        0,
        0,
        0,
        -1.7052525281906128,
        -1.6257046461105347,
        1
      ],
      "name": "RootNode (model correction matrix)"
    },
    {
      "children": [
        3,
        4,
        5
      ],
      "name": "glypt_amazon-200k-textured.obj.cleaner.materialmerger.gles"
    },
    {
      "mesh": 0,
      "name": ""
    },
    {
      "mesh": 1,
      "name": ""
    },
    {
      "mesh": 2,
      "name": ""
    }
  ],
  "samplers": [
    {
      "magFilter": 9729,
      "minFilter": 9987,
      "wrapS": 10497,
      "wrapT": 10497
    }
  ],
  "scene": 0,
  "scenes": [
    {
      "name": "OSG_Scene",
      "nodes": [
        0
      ]
    }
  ],
  "textures": [
    {
      "sampler": 0,
      "source": 0
    },
    {
      "sampler": 0,
      "source": 1
    }
  ]
}

